<svg width="62" height="62" viewBox="0 0 62 62" fill="none" xmlns="http://www.w3.org/2000/svg">
<path d="M25.508 46.92H26.432V48.72H25.508V46.92ZM25.508 53.916H26.432V57.24H25.508V53.916ZM24.176 48.876H25.1C24.872 51.084 24.188 52.368 21.284 53.016C21.2 52.8 20.984 52.44 20.792 52.26C23.432 51.744 23.984 50.712 24.176 48.876ZM26.84 48.84H27.728V51.384C27.728 51.672 27.812 51.72 28.256 51.72C28.46 51.72 29.528 51.72 29.804 51.72C30.152 51.72 30.212 51.6 30.26 50.76C30.44 50.892 30.8 51.024 31.052 51.084C30.944 52.224 30.692 52.512 29.888 52.512C29.66 52.512 28.376 52.512 28.16 52.512C27.104 52.512 26.84 52.272 26.84 51.384V48.84ZM20.936 48.168H31.088V50.328H30.176V48.996H21.824V50.592H20.936V48.168ZM21.968 53.532H30.236V54.348H21.968V53.532ZM20.708 56.784H31.28V57.6H20.708V56.784ZM34.904 48.036H43.064V48.756H34.904V48.036ZM34.952 49.512H42.14V50.208H34.952V49.512ZM33.716 50.988H40.868V51.708H33.716V50.988ZM32.948 54.084H40.196V54.804H32.948V54.084ZM35.132 46.908L36.08 47.148C35.432 48.732 34.376 50.196 33.296 51.132C33.116 50.976 32.696 50.7 32.468 50.568C33.584 49.704 34.58 48.348 35.132 46.908ZM40.556 50.988H41.456C41.504 54.12 41.756 57.072 42.632 57.072C42.848 57.072 42.92 56.388 42.944 55.332C43.112 55.536 43.364 55.764 43.556 55.872C43.484 57.372 43.292 57.96 42.572 57.96C40.892 57.96 40.652 54.9 40.556 50.988ZM33.764 52.464L34.448 52.176C34.856 52.632 35.264 53.256 35.42 53.688L34.688 54C34.544 53.568 34.16 52.932 33.764 52.464ZM36.5 55.416L37.064 54.912C38.084 55.464 39.392 56.304 40.064 56.88L39.464 57.444C38.828 56.856 37.532 55.992 36.5 55.416ZM36.176 51.972H37.028V57.948H36.176V51.972ZM38.792 52.116L39.584 52.404C39.152 52.98 38.66 53.604 38.276 54.012L37.676 53.76C38.06 53.316 38.528 52.596 38.792 52.116ZM35.924 54.36L36.596 54.624C35.828 55.848 34.412 57.084 33.212 57.72C33.08 57.528 32.816 57.216 32.636 57.06C33.824 56.532 35.204 55.428 35.924 54.36Z" fill="white"/>
<path d="M48.6008 53.1899C49.5196 54.3483 51.2129 54.5505 52.2878 53.5351C56.3164 49.7296 59.2638 44.9007 60.7999 39.5421C62.5826 33.3229 62.3749 26.7017 60.2057 20.6065C58.0366 14.5113 54.0149 9.24747 48.704 5.55265C43.3932 1.85783 37.0594 -0.0827955 30.5903 0.00270737C24.1212 0.0882103 17.8409 2.19556 12.6296 6.02945C7.41826 9.86334 3.53702 15.2316 1.52976 21.382C-0.477499 27.5325 -0.510181 34.1568 1.43629 40.3267C3.11343 45.6429 6.18746 50.3921 10.3153 54.0899C11.4166 55.0765 13.1039 54.8296 13.9918 53.6473V53.6473C14.8798 52.465 14.6298 50.7963 13.5464 49.79C10.3035 46.7777 7.88353 42.9657 6.54275 38.7157C4.93249 33.6115 4.95952 28.1314 6.62008 23.0433C8.28063 17.9553 11.4915 13.5142 15.8027 10.3425C20.1139 7.17087 25.3094 5.42752 30.6611 5.35679C36.0128 5.28605 41.2525 6.89148 45.6461 9.9481C50.0396 13.0047 53.3667 17.3594 55.1611 22.4018C56.9556 27.4442 57.1274 32.9216 55.6526 38.0666C54.4246 42.3506 52.1063 46.2252 48.9441 49.3221C47.8877 50.3567 47.6819 52.0314 48.6008 53.1899V53.1899Z" fill="#8F8D8D"/>
<path d="M7.71947 14.8695C6.50409 14.0274 4.82491 14.3251 4.09074 15.6086C0.581211 21.7439 -0.739634 28.9229 0.398254 35.9531C1.53614 42.9833 5.05415 49.3791 10.3199 54.0941C11.4214 55.0804 13.1088 54.8333 13.9965 53.6508V53.6508C14.8842 52.4683 14.6338 50.7996 13.5502 49.7935C9.38353 45.925 6.60052 40.7601 5.68401 35.0976C4.7675 29.4351 5.77913 23.6559 8.51273 18.6705C9.22363 17.374 8.93486 15.7116 7.71947 14.8695V14.8695Z" fill="#F1F1F1"/>
</svg>
