<svg width="14" height="18" viewBox="0 0 14 18" fill="none" xmlns="http://www.w3.org/2000/svg">
<path fill-rule="evenodd" clip-rule="evenodd" d="M13.0502 10.7418C13.3187 11.0103 13.3187 11.4456 13.0502 11.7141L7.48606 17.2783C7.35712 17.4072 7.18226 17.4796 6.99992 17.4796C6.81758 17.4796 6.64272 17.4072 6.51378 17.2783L0.949618 11.7141C0.681133 11.4456 0.681133 11.0103 0.949618 10.7418C1.2181 10.4733 1.6534 10.4733 1.92189 10.7418L6.99992 15.8199L12.078 10.7418C12.3464 10.4733 12.7817 10.4733 13.0502 10.7418Z" fill="white"/>
<path fill-rule="evenodd" clip-rule="evenodd" d="M6.99991 0.521301C7.3796 0.521301 7.68741 0.829106 7.68741 1.2088L7.68741 16.6363C7.68741 17.016 7.3796 17.3238 6.99991 17.3238C6.62021 17.3238 6.31241 17.016 6.31241 16.6363L6.31241 1.2088C6.31241 0.829106 6.62021 0.521301 6.99991 0.521301Z" fill="white"/>
</svg>
