<svg width="1373" height="916" viewBox="0 0 1373 916" fill="none" xmlns="http://www.w3.org/2000/svg">
<g clip-path="url(#clip0_1173_3442)">
<rect width="1373" height="916" fill="white"/>
<path d="M1372.09 0.914185H0.914124V915.086H1372.09V0.914185Z" fill="url(#paint0_linear_1173_3442)" fill-opacity="0.68" stroke="url(#paint1_linear_1173_3442)" stroke-miterlimit="10"/>
<g opacity="0.7" clip-path="url(#clip1_1173_3442)">
<g opacity="0.53">
<path d="M1472 306.848C1432.93 283.808 1385.87 270.897 1336.59 269.686C1320.42 269.288 1303.66 270.197 1287.68 275.611C1251.75 287.784 1226.35 320.251 1210.56 352.359C1194.76 384.466 1185.41 418.581 1165.6 449.211C1145.79 479.842 1111.13 507.709 1074.68 507.615C1043.85 507.539 1020.76 488.191 995.024 475.734C948.095 453.055 882.929 454.437 833.993 486.828C765.115 532.415 747.579 620.294 684.647 672.942C646.79 704.614 593.971 719.987 548.236 712.66C509.166 706.394 464.662 675.025 447.03 615.807C445.269 604.676 443.205 593.714 440.497 583.094C440.497 583.075 440.497 583.037 440.497 583.018C435.8 564.674 429.134 547.333 418.566 531.941C389.761 489.971 336.659 473.86 290.09 484.783C264.524 490.785 238.73 503.961 213.353 497.032C183.336 488.835 164.682 454.418 159.209 420.739C153.736 387.06 158.053 352.434 156.406 318.263C154.758 284.092 145.327 247.403 120.082 227.639C108.852 218.836 95.3871 214.179 81.96 210.866C41.0157 200.813 -2.23897 202.422 -42.4825 215.504L-121 1033.96L683.151 1092.61L682.469 1014.39L1224.06 1107L1472 306.867V306.848Z" fill="#EDA6F9"/>
</g>
<path d="M589 845C532 845 491.44 825.055 467.843 792.039C444.246 759.023 444.379 720.801 438.716 684.244C433.073 647.688 418.32 608.405 375.577 586.255C360.938 578.664 343.117 573.477 324.766 573.666C295.222 573.95 270.091 587.505 245.207 598.447C220.322 609.39 188.373 618.306 162.087 609.049C137.827 600.511 128.813 580.216 122.81 561.967C113.625 534.1 105.955 505.987 99.8186 477.741C92.2244 442.85 86.0317 405.991 55.8253 377.443C25.619 348.894 -38.2782 333.617 -78.1998 355.842V903.261L627.208 915.661" fill="#C08CF5"/>
<path d="M556 842C617.833 856.482 686.636 825.055 716.274 792.039C745.912 759.023 745.742 720.801 752.843 684.244C759.945 647.688 778.467 608.405 832.156 586.255C850.545 578.664 872.949 573.477 895.978 573.666C933.097 573.95 964.667 587.505 995.933 598.447C1027.2 609.39 1067.31 618.306 1100.36 609.049C1130.83 600.511 1142.15 580.216 1149.71 561.967C1161.24 534.1 1170.88 505.987 1178.59 477.741C1188.12 442.85 1195.92 405.991 1233.85 377.443C1271.79 348.894 1352.06 333.617 1402.21 355.842V903.261L516.098 915.661" fill="#C08CF5"/>
<path d="M-78.1998 619.745C-46.5353 580.803 26.5659 573.401 67.9836 604.922C124.495 647.934 114.155 737.082 179.378 769.814C246.21 803.36 342.681 750.523 405.291 789.578C422.695 800.426 434.039 816.782 446.083 832.06C465.59 856.784 488.675 880.127 518.276 895.915C547.876 911.685 584.805 919.182 618.307 910.909L363.532 959.506H-46.6489" fill="url(#paint2_linear_1173_3442)"/>
<path d="M1399.62 550.21C1378.31 526.565 1334.3 519.314 1297.31 529.405C1260.33 539.495 1230.9 564.409 1214.95 592.408C1194.94 627.526 1194.31 666.278 1184.01 703.384C1173.71 740.489 1148.29 780.378 1102.27 794.027C1068.35 804.08 1031.52 797.321 999.513 787.098C967.507 776.875 936.96 763.188 902.284 759.118C860.904 754.252 815.699 764.305 781.781 785.906C745.344 809.096 723.451 843.286 690.253 869.298C650.521 900.421 594.502 918.463 540.225 917.649C540.225 917.649 1019.59 1078.32 1249.36 1050.19C1479.14 1022.04 1399.62 550.229 1399.62 550.229V550.21Z" fill="url(#paint3_linear_1173_3442)"/>
<path d="M428.094 74.492C427.185 67.885 432.999 62.4138 438.567 58.7601C440.007 57.8135 441.522 56.8859 443.207 56.564C449.495 55.3335 454.381 62.3949 460.668 63.5308C465.459 64.4016 470.289 61.5808 473.338 57.7946C476.387 54.0083 478.091 49.3512 480.08 44.9023C483.735 36.6672 488.772 28.6403 496.423 23.8507C504.055 19.061 514.774 18.3227 521.762 24.0211C529.906 30.6849 530.266 42.7631 534.356 52.4559C535.549 55.2767 537.159 58.0407 539.659 59.8392C542.159 61.6376 545.643 62.2813 548.333 60.7857C551.192 59.1955 552.499 55.6364 555.34 54.0083C559.014 51.9069 563.862 53.8758 566.684 57.0373C569.146 59.8013 570.964 63.6444 574.543 64.6477C579.562 66.0486 584.126 60.9561 589.315 60.5396C593.273 60.2367 597.023 62.8114 599.219 66.1244C601.416 69.4374 602.382 73.394 603.291 77.2749" fill="url(#paint4_linear_1173_3442)"/>
<path d="M729.074 188.814C728.359 183.622 732.936 179.324 737.319 176.453C738.452 175.709 739.645 174.981 740.972 174.728C745.922 173.761 749.768 179.309 754.718 180.201C758.49 180.886 762.292 178.669 764.693 175.695C767.093 172.72 768.435 169.061 770 165.565C772.878 159.095 776.844 152.789 782.867 149.025C788.875 145.262 797.314 144.682 802.816 149.159C809.227 154.395 809.51 163.885 812.73 171.5C813.67 173.716 814.937 175.888 816.905 177.301C818.873 178.714 821.616 179.22 823.733 178.045C825.985 176.795 827.013 173.999 829.25 172.72C832.142 171.069 835.959 172.616 838.18 175.1C840.119 177.271 841.55 180.291 844.368 181.079C848.319 182.18 851.912 178.179 855.997 177.851C859.113 177.613 862.065 179.636 863.795 182.239C865.524 184.842 866.284 187.951 867 191" fill="url(#paint5_linear_1173_3442)"/>
<path d="M959 254.222C962.882 244.719 966.973 234.893 974.453 227.851C981.934 220.808 993.846 217.363 1002.69 222.588C1011.14 227.567 1016.27 239.569 1026.08 239.134C1034.6 238.755 1039.09 229.119 1041.66 220.998C1046.21 206.648 1050.79 191.9 1060.03 180.03C1069.3 168.16 1084.45 159.622 1099.2 162.595C1112.87 165.359 1123.17 177.323 1128.08 190.386C1130.75 197.485 1132.19 205.133 1136.15 211.608C1140.11 218.082 1147.66 223.27 1155.01 221.376C1168.04 218.007 1170.41 196.368 1183.8 194.986C1193 194.021 1199.46 203.695 1202.81 212.308C1206.18 220.922 1210.01 231.107 1218.93 233.53C1223.43 234.761 1228.21 233.587 1232.77 232.546C1240.65 230.747 1249.09 229.384 1256.67 232.224C1264.23 235.083 1270.21 243.64 1267.46 251.231" fill="url(#paint6_linear_1173_3442)"/>
<path d="M160 264.447C160.72 259.638 162.216 254.716 165.681 251.328C169.147 247.939 175.056 246.67 178.957 249.567C180.927 251.025 183.199 253.524 185.245 252.179C186.021 251.668 186.381 250.76 186.722 249.908C189.051 244.077 191.949 238.454 195.357 233.172C198.577 228.193 202.857 223.139 208.728 222.23C213.898 221.454 219.068 224.218 222.704 227.985C226.34 231.753 228.802 236.466 231.605 240.877C232.173 241.767 232.798 242.695 233.745 243.149C236.264 244.361 238.877 241.692 240.222 239.249C244.483 231.506 246.415 222.703 250.278 214.771C257.209 200.554 272.265 189.119 287.927 191.258C296.828 192.47 304.858 197.922 310.198 205.135C315.539 212.348 318.38 221.227 319.383 230.143C319.97 235.293 321.107 241.9 326.201 242.865C332.394 244.02 335.897 235.293 341.958 233.551C346.143 232.358 350.555 234.857 353.472 238.076C356.483 241.389 358.547 245.572 359.324 249.965C359.456 250.741 359.589 251.612 360.176 252.161C361.653 253.561 363.869 251.744 365.346 250.343C369.683 246.235 376.747 245.345 381.955 248.261C387.163 251.176 390.117 257.651 388.886 263.481" fill="url(#paint7_linear_1173_3442)"/>
</g>
</g>
<defs>
<linearGradient id="paint0_linear_1173_3442" x1="686" y1="-160" x2="686.001" y2="1626" gradientUnits="userSpaceOnUse">
<stop stop-color="white"/>
<stop offset="1" stop-color="#DD62F1"/>
</linearGradient>
<linearGradient id="paint1_linear_1173_3442" x1="9.06112e-06" y1="458" x2="1373" y2="458" gradientUnits="userSpaceOnUse">
<stop stop-color="white"/>
<stop offset="1" stop-color="#09B5DB"/>
</linearGradient>
<linearGradient id="paint2_linear_1173_3442" x1="291" y1="772" x2="7.0694" y2="1064.07" gradientUnits="userSpaceOnUse">
<stop stop-color="#807AEC"/>
<stop offset="1" stop-color="#C45EE1"/>
</linearGradient>
<linearGradient id="paint3_linear_1173_3442" x1="875" y1="670" x2="1503.03" y2="1023.94" gradientUnits="userSpaceOnUse">
<stop stop-color="#807AEC"/>
<stop offset="1" stop-color="#DA54DD"/>
</linearGradient>
<linearGradient id="paint4_linear_1173_3442" x1="516.744" y1="-76.05" x2="515.211" y2="130.718" gradientUnits="userSpaceOnUse">
<stop stop-color="white"/>
<stop offset="1" stop-color="white" stop-opacity="0.1"/>
</linearGradient>
<linearGradient id="paint5_linear_1173_3442" x1="798.865" y1="70.535" x2="797.663" y2="232.99" gradientUnits="userSpaceOnUse">
<stop stop-color="white"/>
<stop offset="1" stop-color="white" stop-opacity="0.1"/>
</linearGradient>
<linearGradient id="paint6_linear_1173_3442" x1="1084.54" y1="23.3356" x2="1119.74" y2="299.017" gradientUnits="userSpaceOnUse">
<stop stop-color="white"/>
<stop offset="1" stop-color="white" stop-opacity="0.1"/>
</linearGradient>
<linearGradient id="paint7_linear_1173_3442" x1="287.264" y1="-148.256" x2="270.27" y2="404.274" gradientUnits="userSpaceOnUse">
<stop stop-color="white"/>
<stop offset="1" stop-color="white" stop-opacity="0.1"/>
</linearGradient>
<clipPath id="clip0_1173_3442">
<rect width="1373" height="916" fill="white"/>
</clipPath>
<clipPath id="clip1_1173_3442">
<rect width="1593" height="1087" fill="white" transform="translate(-121 20)"/>
</clipPath>
</defs>
</svg>
