<svg width="30" height="25" viewBox="0 0 30 25" fill="none" xmlns="http://www.w3.org/2000/svg">
<path d="M24.1 4.25H25.4C26.8359 4.25 28 5.48122 28 7V8.375M5.9 4.25H4.6C3.16406 4.25 2 5.48122 2 7V8.375M7.2 5.625H22.8M7.2 13.875H22.8M15 5.625V13.875M8.5 20.75V22.125C8.5 22.8844 9.08203 23.5 9.8 23.5C10.518 23.5 11.1 22.8844 11.1 22.125V20.75M18.9 20.75V22.125C18.9 22.8844 19.482 23.5 20.2 23.5C20.918 23.5 21.5 22.8844 21.5 22.125V20.75M10.06 20.75H19.94C21.3961 20.75 22.1242 20.75 22.6804 20.4503C23.1696 20.1866 23.5673 19.7659 23.8166 19.2485C24.1 18.6602 24.1 17.8901 24.1 16.35V5.9C24.1 4.35986 24.1 3.58978 23.8166 3.00153C23.5673 2.48408 23.1696 2.06338 22.6804 1.79973C22.1242 1.5 21.3961 1.5 19.94 1.5H10.06C8.60386 1.5 7.8758 1.5 7.31962 1.79973C6.8304 2.06338 6.43265 2.48408 6.18338 3.00153C5.9 3.58978 5.9 4.35986 5.9 5.9V16.35C5.9 17.8901 5.9 18.6602 6.18338 19.2485C6.43265 19.7659 6.8304 20.1866 7.31962 20.4503C7.8758 20.75 8.60386 20.75 10.06 20.75Z" stroke="#05164C" stroke-width="3" stroke-linecap="round"/>
</svg>
