<svg width="160" height="160" viewBox="0 0 160 160" fill="none" xmlns="http://www.w3.org/2000/svg">
<path fill-rule="evenodd" clip-rule="evenodd" d="M57.6587 40.2797C59.4287 40.0948 61.2244 40 63.0414 40C87.3448 40 107.83 56.9488 114.105 80.0693C114.607 80.0367 115.113 80.0155 115.621 80.0059C115.414 80.0023 115.207 80.0005 115 80.0005L114.832 80.0009L114.832 80H122.5H122.801V79.9975C132.327 79.8367 140 72.0644 140 62.5C140 52.835 132.165 45 122.5 45C119.255 45 116.216 45.8833 113.611 47.4225C113.603 44.6289 113.179 41.9332 112.397 39.3943C108.501 28.1073 97.7834 20 85.1725 20C72.2342 20 61.2891 28.5338 57.6587 40.2797ZM135.883 86.5293C144.431 92.8793 150 103.265 150 115C150 134.33 134.888 150 116.246 150C115.829 150 115.414 149.992 115 149.976V150H63.8356V149.994C63.5714 149.998 63.3066 150 63.0414 150C33.7475 150 10 125.376 10 95C10 70.4717 25.4847 49.6935 46.8706 42.6028C49.8345 24.1203 65.8545 10 85.1725 10C101.747 10 115.893 20.3942 121.449 35.0197C121.798 35.0066 122.148 35 122.5 35C137.688 35 150 47.3122 150 62.5C150 72.8295 144.305 81.8288 135.883 86.5293ZM115 140H63.8356H63.2601V139.999L63.0414 140C39.609 140 20 120.198 20 95C20 69.8023 39.609 50 63.0414 50C82.9193 50 100.046 64.2502 104.784 83.9557L104.799 83.9496C105.469 86.6837 105.895 89.5183 106.054 92.4274C109.17 90.8659 112.636 90 116.246 90C129.027 90 140 100.848 140 115C140 129.053 129.18 139.848 116.515 139.998V140H115Z" fill="white"/>
</svg>
