<svg width="1280" height="86" viewBox="0 0 1280 86" fill="none" xmlns="http://www.w3.org/2000/svg">
<path d="M-7 -3H479.5L513.5 65H-7V-3Z" fill="url(#paint0_linear_1142_5687)"/>
<path d="M1281 -3H793L754 69H1281V-3Z" fill="url(#paint1_linear_1142_5687)"/>
<g clip-path="url(#clip0_1142_5687)">
<g filter="url(#filter0_d_1142_5687)">
<path d="M482.136 4.09376C476.11 -7.87726 484.811 -22 498.214 -22H774.457C788.171 -22 796.847 -7.27721 790.204 4.71993L750.333 76.7199C747.162 82.4464 741.132 86 734.586 86H534.46C527.659 86 521.44 82.1677 518.382 76.0938L482.136 4.09376Z" fill="url(#paint2_linear_1142_5687)" fill-opacity="0.86" shape-rendering="crispEdges"/>
<path d="M498.214 -21.5H774.457C787.79 -21.5 796.225 -7.18618 789.766 4.47771L749.896 76.4777C746.813 82.0451 740.95 85.5 734.586 85.5H534.46C527.848 85.5 521.801 81.7742 518.829 75.8689L482.583 3.86894C476.724 -7.76956 485.184 -21.5 498.214 -21.5Z" stroke="white" stroke-opacity="0.17" shape-rendering="crispEdges"/>
</g>
</g>
<defs>
<filter id="filter0_d_1142_5687" x="475.19" y="-23" width="322.292" height="118" filterUnits="userSpaceOnUse" color-interpolation-filters="sRGB">
<feFlood flood-opacity="0" result="BackgroundImageFix"/>
<feColorMatrix in="SourceAlpha" type="matrix" values="0 0 0 0 0 0 0 0 0 0 0 0 0 0 0 0 0 0 127 0" result="hardAlpha"/>
<feOffset dy="4"/>
<feGaussianBlur stdDeviation="2.5"/>
<feComposite in2="hardAlpha" operator="out"/>
<feColorMatrix type="matrix" values="0 0 0 0 0 0 0 0 0 0 0 0 0 0 0 0 0 0 0.41 0"/>
<feBlend mode="normal" in2="BackgroundImageFix" result="effect1_dropShadow_1142_5687"/>
<feBlend mode="normal" in="SourceGraphic" in2="effect1_dropShadow_1142_5687" result="shape"/>
</filter>
<linearGradient id="paint0_linear_1142_5687" x1="255" y1="-3" x2="255" y2="65" gradientUnits="userSpaceOnUse">
<stop stop-color="#9E69B1"/>
<stop offset="0.541667" stop-color="#81459D"/>
<stop offset="0.875" stop-color="#C588CA"/>
<stop offset="0.989583" stop-color="#47234A"/>
</linearGradient>
<linearGradient id="paint1_linear_1142_5687" x1="1017.5" y1="-3" x2="1017.5" y2="69" gradientUnits="userSpaceOnUse">
<stop stop-color="#9E69B1"/>
<stop offset="0.541667" stop-color="#81459D"/>
<stop offset="0.875" stop-color="#C588CA"/>
<stop offset="0.989583" stop-color="#47234A"/>
</linearGradient>
<linearGradient id="paint2_linear_1142_5687" x1="637" y1="-26.5" x2="637" y2="86" gradientUnits="userSpaceOnUse">
<stop stop-color="#9E69B1"/>
<stop offset="0.5625" stop-color="#81459D"/>
<stop offset="0.947917" stop-color="#B58EC3"/>
<stop offset="1" stop-color="#7A3F8F"/>
</linearGradient>
<clipPath id="clip0_1142_5687">
<rect width="336" height="108" fill="white" transform="translate(469 -22)"/>
</clipPath>
</defs>
</svg>
