<svg width="18" height="23" viewBox="0 0 18 23" fill="none" xmlns="http://www.w3.org/2000/svg">
<path d="M9.63936 10.48C10.6513 10.48 11.6423 10.4791 12.6324 10.48C13.01 10.48 13.333 10.6033 13.5403 10.9703C13.9095 11.6224 13.448 12.4706 12.7121 12.4769C11.7488 12.485 10.7856 12.4787 9.82312 12.4787C9.75515 12.4787 9.68635 12.4787 9.60915 12.4787V13.3656H9.83403C10.9022 13.3656 11.9695 13.3782 13.0377 13.3611C13.7131 13.3503 14.1621 13.6462 14.4658 14.3065C15.2495 16.0119 16.0693 17.6976 16.8698 19.3949C17.0158 19.7052 17.1685 20.0182 17.2616 20.3493C17.4765 21.112 17.0082 21.7732 16.3613 21.9602C15.8553 22.1069 15.2495 21.8631 14.929 21.175C14.2762 19.7736 13.6108 18.3785 12.9512 16.9807C12.8254 16.7144 12.6987 16.4491 12.5745 16.1828C12.525 16.0758 12.4637 16.0227 12.337 16.0236C10.7881 16.0308 9.23827 16.0443 7.68931 16.0209C7.14306 16.0128 6.68157 15.734 6.33586 15.2689C6.0212 14.8462 5.90709 14.3649 5.91044 13.8207C5.92387 11.6503 5.91044 9.4798 5.92051 7.30933C5.92219 6.90636 6.08497 6.54656 6.31992 6.23084C6.55822 5.90972 6.85358 5.66776 7.22697 5.56881C8.18018 5.31516 9.15772 5.67045 9.51685 6.85149C9.5974 7.11774 9.63264 7.41007 9.63768 7.69071C9.65194 8.60999 9.64355 9.53017 9.64355 10.4791L9.63936 10.48Z" fill="#10266A"/>
<path d="M4.67024 9.28554C4.67024 9.97095 4.6736 10.6357 4.66437 11.3004C4.66437 11.3553 4.58801 11.4308 4.53095 11.4605C4.0082 11.7313 3.5467 12.092 3.15149 12.5462C2.54986 13.2379 2.13871 14.0376 1.9776 14.9739C1.92558 15.2753 1.85258 15.5811 1.85677 15.8833C1.86852 16.8152 2.06738 17.7021 2.51294 18.5152C3.03317 19.4642 3.7657 20.1667 4.708 20.5858C5.13258 20.7747 5.59659 20.8863 6.05306 20.9609C7.01382 21.1183 7.92003 20.8728 8.76248 20.3826C9.73163 19.8186 10.4373 18.9866 10.856 17.8847C10.9198 17.7174 10.981 17.5492 11.0448 17.3774C11.0759 17.3774 11.1035 17.3774 11.1312 17.3774C11.5429 17.375 11.84 17.5723 12.0223 17.9692C12.1465 18.2382 12.285 18.4999 12.3991 18.7734C12.4327 18.8534 12.4369 18.9776 12.4025 19.0549C12.0752 19.7997 11.6246 20.4563 11.0733 21.023C10.3198 21.7984 9.43879 22.3659 8.43607 22.6844C8.02912 22.8139 7.6037 22.8885 7.1808 22.9407C6.78307 22.9902 6.37527 23.0208 5.97838 22.983C5.31046 22.92 4.66353 22.7347 4.03924 22.4577C3.20351 22.0862 2.47266 21.5492 1.85006 20.853C1.04537 19.9544 0.503319 18.8957 0.211316 17.6841C0.0409805 16.9771 -0.0311812 16.2611 0.0124514 15.5406C0.0804177 14.4288 0.371582 13.3719 0.928738 12.4284C1.23501 11.9103 1.59162 11.4119 1.99186 10.9748C2.72775 10.1706 3.6155 9.60666 4.67024 9.28464V9.28554Z" fill="#10266A"/>
<path d="M9.8508 2.26685C9.91458 3.51894 8.84474 4.58304 7.6633 4.52727C6.58171 4.476 5.72836 3.53873 5.66542 2.42696C5.58068 0.947296 6.6673 0.00642738 7.71029 0.000130943C8.8741 -0.00706499 9.9087 0.972481 9.8508 2.26685Z" fill="#10266A"/>
</svg>
