<svg width="160" height="160" viewBox="0 0 160 160" fill="none" xmlns="http://www.w3.org/2000/svg">
<path fill-rule="evenodd" clip-rule="evenodd" d="M137.956 95.5287C140.257 86.94 140.573 78.2871 139.185 70.0571C137.327 76.0168 134.012 81.1653 129.735 85.2066L129.731 85.2496C126.531 88.4011 122.758 90.921 118.611 92.6706C113.951 94.6363 108.925 95.5844 103.869 95.4516C98.8136 95.3188 93.8445 94.1081 89.2943 91.9005C84.7441 89.6928 80.7177 86.5391 77.4843 82.6503C74.2509 78.7614 71.8851 74.227 70.5451 69.3504C69.205 64.4737 68.9216 59.3671 69.7138 54.372C70.5059 49.377 72.3555 44.6087 75.1386 40.3859C77.7346 36.4472 81.087 33.0677 84.9977 30.4419C89.9843 26.9571 95.8467 24.7607 102.028 24.1837C99.9284 23.358 97.7604 22.6419 95.5291 22.044C63.5211 13.4675 30.6209 32.4625 22.0444 64.4704C13.4679 96.4784 32.4628 129.379 64.4708 137.955C96.4788 146.532 129.379 127.537 137.956 95.5287ZM125.231 101.331C115.128 122.818 90.7988 134.657 67.059 128.296C40.3857 121.149 24.5566 93.7319 31.7037 67.0586C36.6394 48.6382 51.2422 35.3896 68.5911 31.3086C67.7695 32.3478 66.9915 33.4238 66.2598 34.534C62.6436 40.0207 60.2405 46.2163 59.2112 52.7064C58.1819 59.1965 58.5501 65.8316 60.2913 72.168C62.0325 78.5044 65.1064 84.3959 69.3076 89.4488C73.5088 94.5017 78.7403 98.5993 84.6525 101.468C90.5646 104.336 97.0211 105.909 103.59 106.082C110.159 106.254 116.689 105.022 122.744 102.468C123.585 102.114 124.414 101.734 125.231 101.331ZM129.302 43.0705L126.68 35L124.058 43.0705L115.572 43.0705L122.437 48.0584L119.815 56.1289L126.68 51.141L133.545 56.1289L130.923 48.0584L137.788 43.0705L129.302 43.0705ZM96.6798 35L99.302 43.0705L107.788 43.0705L100.923 48.0584L103.545 56.1289L96.6798 51.141L89.8146 56.1289L92.4368 48.0584L85.5717 43.0705L94.0575 43.0705L96.6798 35ZM114.302 63.0705L111.68 55L109.057 63.0705L100.572 63.0705L107.437 68.0584L104.815 76.1289L111.68 71.141L118.545 76.1289L115.923 68.0584L122.788 63.0705L114.302 63.0705Z" fill="white"/>
</svg>
