<svg width="49" height="49" viewBox="0 0 49 49" fill="none" xmlns="http://www.w3.org/2000/svg">
<path d="M15.1 31.55H33.9M31.55 17.45H31.5735M17.45 17.45H17.4735M48 24.5C48 37.4787 37.4787 48 24.5 48C11.5213 48 1 37.4787 1 24.5C1 11.5213 11.5213 1 24.5 1C37.4787 1 48 11.5213 48 24.5ZM32.725 17.45C32.725 18.0989 32.1989 18.625 31.55 18.625C30.9011 18.625 30.375 18.0989 30.375 17.45C30.375 16.8011 30.9011 16.275 31.55 16.275C32.1989 16.275 32.725 16.8011 32.725 17.45ZM18.625 17.45C18.625 18.0989 18.0989 18.625 17.45 18.625C16.8011 18.625 16.275 18.0989 16.275 17.45C16.275 16.8011 16.8011 16.275 17.45 16.275C18.0989 16.275 18.625 16.8011 18.625 17.45Z" stroke="#0173D5" stroke-width="2" stroke-linecap="round" stroke-linejoin="round"/>
</svg>
