<svg width="57" height="57" viewBox="0 0 57 57" fill="none" xmlns="http://www.w3.org/2000/svg">
<path d="M38 38C38 38 34.4375 33.25 28.5 33.25C22.5625 33.25 19 38 19 38M35.625 21.375H35.6488M21.375 21.375H21.3988M52.25 28.5C52.25 41.6168 41.6168 52.25 28.5 52.25C15.3832 52.25 4.75 41.6168 4.75 28.5C4.75 15.3832 15.3832 4.75 28.5 4.75C41.6168 4.75 52.25 15.3832 52.25 28.5ZM36.8125 21.375C36.8125 22.0308 36.2808 22.5625 35.625 22.5625C34.9692 22.5625 34.4375 22.0308 34.4375 21.375C34.4375 20.7192 34.9692 20.1875 35.625 20.1875C36.2808 20.1875 36.8125 20.7192 36.8125 21.375ZM22.5625 21.375C22.5625 22.0308 22.0308 22.5625 21.375 22.5625C20.7192 22.5625 20.1875 22.0308 20.1875 21.375C20.1875 20.7192 20.7192 20.1875 21.375 20.1875C22.0308 20.1875 22.5625 20.7192 22.5625 21.375Z" stroke="white" stroke-width="2" stroke-linecap="round" stroke-linejoin="round"/>
</svg>
