<svg width="49" height="49" viewBox="0 0 49 49" fill="none" xmlns="http://www.w3.org/2000/svg">
<path d="M16.3333 28.5833C16.3333 28.5833 19.3958 32.6666 24.5 32.6666C29.6042 32.6666 32.6667 28.5833 32.6667 28.5833M30.625 18.375H30.6454M18.375 18.375H18.3954M44.9167 24.5C44.9167 35.7758 35.7758 44.9166 24.5 44.9166C13.2242 44.9166 4.08334 35.7758 4.08334 24.5C4.08334 13.2242 13.2242 4.08331 24.5 4.08331C35.7758 4.08331 44.9167 13.2242 44.9167 24.5ZM31.6458 18.375C31.6458 18.9388 31.1888 19.3958 30.625 19.3958C30.0612 19.3958 29.6042 18.9388 29.6042 18.375C29.6042 17.8112 30.0612 17.3541 30.625 17.3541C31.1888 17.3541 31.6458 17.8112 31.6458 18.375ZM19.3958 18.375C19.3958 18.9388 18.9388 19.3958 18.375 19.3958C17.8112 19.3958 17.3542 18.9388 17.3542 18.375C17.3542 17.8112 17.8112 17.3541 18.375 17.3541C18.9388 17.3541 19.3958 17.8112 19.3958 18.375Z" stroke="white" stroke-width="2" stroke-linecap="round" stroke-linejoin="round"/>
</svg>
