<svg width="49" height="50" viewBox="0 0 49 50" fill="none" xmlns="http://www.w3.org/2000/svg">
<path d="M16.3333 29.1972C16.3333 29.1972 19.3958 33.2805 24.5 33.2805C29.6042 33.2805 32.6667 29.1972 32.6667 29.1972M30.625 18.9889H30.6454M18.375 18.9889H18.3954M44.9167 25.1139C44.9167 36.3897 35.7758 45.5305 24.5 45.5305C13.2242 45.5305 4.08334 36.3897 4.08334 25.1139C4.08334 13.8381 13.2242 4.6972 24.5 4.6972C35.7758 4.6972 44.9167 13.8381 44.9167 25.1139ZM31.6458 18.9889C31.6458 19.5527 31.1888 20.0097 30.625 20.0097C30.0612 20.0097 29.6042 19.5527 29.6042 18.9889C29.6042 18.4251 30.0612 17.968 30.625 17.968C31.1888 17.968 31.6458 18.4251 31.6458 18.9889ZM19.3958 18.9889C19.3958 19.5527 18.9388 20.0097 18.375 20.0097C17.8112 20.0097 17.3542 19.5527 17.3542 18.9889C17.3542 18.4251 17.8112 17.968 18.375 17.968C18.9388 17.968 19.3958 18.4251 19.3958 18.9889Z" stroke="#0173D5" stroke-width="2" stroke-linecap="round" stroke-linejoin="round"/>
</svg>
